<svg version="1.1" baseProfile="full"
     xmlns="http://www.w3.org/2000/svg" viewBox="0 0 68 53.8" width="40px" height="40px" x="0" y="0" preserveAspectRatio="xMinYMin meet" focusable="false">
  <style type="text/css">
    .st0{fill:#031329;}
    .st1{fill:#FFFFFF;}
  </style>
  <g class="app-icon" style="fill: currentColor">
    <polygon class="st0" points="23.2,18.3 27.3,18.3 25.2,12.4 	"/>
    <polygon class="st0" points="42.4,45.1 38.9,38.2 36.6,38.2 36.6,47.4 38.4,47.4 38.4,40.5 41.9,47.4 44.2,47.4 44.2,38.2
		42.4,38.2 	"/>
    <path class="st0" d="M24.9,38.2l-3.6,9.2h1.9l0.8-2.1h3.7l0.8,2.1h2.1L27,38.2H24.9z M24.5,43.8l1.4-3.8l1.3,3.8H24.5z"/>
    <path class="st0" d="M13.6,42.7c1.1-0.2,1.8-1,1.8-2.1c0-2-1.8-2.4-3-2.4H9.2v9.2h3.3c1.1,0,3.2-0.4,3.2-2.6
		C15.7,43.7,14.9,42.8,13.6,42.7z M11.1,39.5h0.7c0.8,0,1.8,0.1,1.8,1.2c0,1-1,1.2-1.8,1.1h-0.7V39.5z M12,45.9h-0.9v-2.7H12
		c0.9,0,1.9,0.2,1.9,1.4C13.9,45.7,12.9,45.9,12,45.9z"/>
    <polygon class="st0" points="58.6,38.2 56.3,38.2 53,42.2 53,38.2 51.2,38.2 51.2,47.4 53,47.4 53,43.1 56.4,47.3 56.4,47.4
		58.8,47.4 54.8,42.5 	"/>
    <path class="st0" d="M1.6,1.6v30.1h64.9V1.6H1.6z M11.8,24c-1.6,0-2.3-0.1-3.7-0.5L9,21.2c0.8,0.4,1.7,0.6,2.6,0.6
		c1,0,2.5-0.5,2.5-1.8c0-2.8-6.2-1.7-6.3-6.4c0-3.1,2.5-4.3,5-4.3c1.2,0,2.4,0.1,3.4,0.5l-0.8,2.1c-0.7-0.3-1.5-0.4-2.3-0.4
		c-0.9,0-2.2,0.5-2.2,2c0,2.4,6.3,1.4,6.3,6.2C17.2,22.8,14.7,24,11.8,24z M29.3,23.8l-1.2-3.3h-5.8L21,23.7h-2.9l5.6-14.2h3.2
		l4.3,11.2L29.3,23.8z M42.1,23.7l-3.3-5.5l-3.3,5.5h-3.3l4.7-7.3l-4.2-6.9H36l3,5.1l3-5.1h3.1l-4.3,6.9l4.7,7.3H42.1z M53.2,24
		c-4.6,0-7-3-7-7.4c0-4.4,2.5-7.3,7-7.3s7,3,7,7.3S57.7,24,53.2,24z"/>
    <path class="st0" d="M53.2,11.5c-2.9,0-4,2.6-4,5.1c0,2.6,1.1,5.2,4,5.2c2.9,0,4-2.6,4-5.2C57.2,14.1,56,11.5,53.2,11.5z"/>
    <rect x="68" y="0" class="st0" width="0" height="53.8"/>
    <path class="st1" d="M12,43.2h-0.9v2.7H12c0.9,0,1.9-0.2,1.9-1.3C13.9,43.4,12.9,43.2,12,43.2z"/>
    <polygon class="st1" points="24.5,43.8 27.2,43.8 25.9,40 	"/>
    <rect y="53.8" class="st1" width="68" height="0"/>
    <path class="st1" d="M0,0v53.8h68V0H0z M12.5,47.4H9.2v-9.2h3.2c1.2,0,3,0.4,3,2.4c0,1.1-0.7,1.9-1.8,2.1c1.3,0.1,2.1,1,2.1,2.1
		C15.7,47,13.6,47.4,12.5,47.4z M28.5,47.4l-0.8-2.1H24l-0.8,2.1h-1.9l3.6-9.2H27l3.6,9.2H28.5z M44.2,47.4h-2.3l-3.5-6.9v6.9h-1.8
		v-9.2h2.3l3.5,6.9v-6.9h1.8V47.4z M56.4,47.4L56.4,47.4L53,43.1v4.3h-1.8v-9.2H53v4l3.3-4h2.3l-3.8,4.3l4,4.9H56.4z M1.6,31.7V1.6
		h64.9v30.1H1.6z"/>
    <path class="st1" d="M13.6,40.7c0-1.1-1-1.2-1.8-1.2h-0.7v2.3h0.7C12.6,41.9,13.6,41.7,13.6,40.7z"/>
    <path class="st1" d="M10.9,13.5c0-1.5,1.3-2,2.2-2c0.8,0,1.6,0.1,2.3,0.4l0.8-2.1c-1-0.4-2.2-0.5-3.4-0.5c-2.5,0-5,1.2-5,4.3
		c0.1,4.7,6.3,3.6,6.3,6.4c0,1.3-1.5,1.8-2.5,1.8c-0.9,0-1.8-0.2-2.6-0.6l-0.9,2.3c1.4,0.4,2.1,0.5,3.7,0.5c2.9,0,5.4-1.2,5.4-4.3
		C17.2,14.9,10.9,15.9,10.9,13.5z"/>
    <polygon class="st1" points="45.1,9.5 42,9.5 39,14.6 36,9.5 32.7,9.5 36.9,16.4 32.2,23.7 35.5,23.7 38.8,18.2 42.1,23.7
		45.5,23.7 40.8,16.4 	"/>
    <path class="st1" d="M53.2,9.3c-4.5,0-7,2.9-7,7.3c0,4.4,2.4,7.4,7,7.4c4.5,0,7-3.1,7-7.4S57.7,9.3,53.2,9.3z M53.2,21.8
		c-2.9,0-4-2.6-4-5.2c0-2.5,1.1-5.1,4-5.1c2.8,0,4,2.6,4,5.1C57.2,19.2,56.1,21.8,53.2,21.8z"/>
    <path class="st1" d="M23.7,9.5l-5.6,14.2H21l1.3-3.2h5.8l1.2,3.3l1.9-3.1L26.9,9.5H23.7z M23.2,18.3l2-5.9l2.1,5.9H23.2z"/>
  </g>
</svg>
